<svg xmlns="http://www.w3.org/2000/svg" width="55.3" height="55" viewBox="0 0 55.3 55">
  <g id="Group_145" data-name="Group 145" transform="translate(-20 -643)">
    <path id="Path_169" data-name="Path 169" d="M824.9,133.893a26.558,26.558,0,0,1-.774,7.081c-.844,3.208-2.509,5.282-4.357,7.9-2.059,2.914-3.9,6.019-7.055,7.721a74.784,74.784,0,0,1-6.819,3.141c-7.047,2.907-14.993,1.849-21.631-1.618a29.584,29.584,0,0,1-8.924-6.811c-4.617-5.532-6.1-13.209-5.662-20.245.444-7.194,2.941-11.583,8-16.607,1.77-1.755,2.514-2.842,4.866-3.66,2.972-1.033,5.727-2.868,8.7-3.528a34.965,34.965,0,0,1,10.252-.743,26.194,26.194,0,0,1,10.556,3.789,25.891,25.891,0,0,1,10.808,12.6A32.225,32.225,0,0,1,824.9,133.893Z" transform="translate(-749.599 536.58)" fill="#ebebec"/>
    <g id="Group_138" data-name="Group 138" transform="translate(26.065 649.065)">
      <g id="Group_140" data-name="Group 140">
        <g id="Group_138-2" data-name="Group 138">
          <path id="Path_156" data-name="Path 156" d="M1387.791,797.89l2.629-1.482c.23-.128.6-.353.816-.5l2.534-1.66c.22-.144.588-.363.816-.491l2.651-1.452c.23-.125.605-.335.83-.464l2.628-1.494c.228-.132-1.163.591.824-.482a20.579,20.579,0,0,0,2.593-1.554h0a16.443,16.443,0,0,0,.042-2.156c.005-.262.01-.692.007-.956l-.006-3.023c0-.259-.006-.688-.011-.951l-.056-3.023c0-.259,0-.689.018-.951l.182-3.024c.015-.26.028-.69.025-.955l-.018-3.018c0-.261-.012-.693-.023-.952,0,0,.535-1.577-.069-1.815s-4.807.783-6.98,1.684a22.265,22.265,0,0,0-13.4,20.116,22.005,22.005,0,0,0,1.39,8.426c.173.421.3,1.265.589,1.225a5.658,5.658,0,0,0,1.147-.6C1387.184,798.225,1387.563,798.017,1387.791,797.89Z" transform="translate(-1383.827 -767.458)" fill="#006c3a"/>
          <path id="Path_157" data-name="Path 157" d="M1420.677,795.337l-2.58-1.49c-.222-.127-.6-.324-.833-.435l-2.695-1.268c-.237-.111-.609-.3-.838-.425l-2.615-1.421c-.227-.125-.6-.325-.833-.446l-2.635-1.379c-.23-.119-.6-.32-.828-.446,0,0-1.956-1.176-2.451-1.369s-2.371,1.455-2.371,1.455c-.224.134-.584.351-.811.479l-2.578,1.484c-.227.13-.593.346-.816.479l-2.555,1.529c-.223.134-.59.34-.822.459l-2.641,1.377c-.228.121-.6.334-.815.469l-2.52,1.593c-.219.14-.583.36-.8.491,0,0-.961.328-.974.572a24.925,24.925,0,0,0,2.936,3.348c1.968,2.007,4.051,4.105,6.664,5.21a21.573,21.573,0,0,0,8.328,1.47,20.874,20.874,0,0,0,8.108-2.008c2.613-1.1,5.343-2.229,7.312-4.235,1.189-1.213,3.529-3.679,3.178-4.132a5.054,5.054,0,0,0-1.691-.9C1421.275,795.673,1420.9,795.467,1420.677,795.337Z" transform="translate(-1383.209 -763.976)" fill="#ffcc32"/>
        </g>
        <g id="Group_139" data-name="Group 139" transform="translate(22.352 0.04)">
          <path id="Path_158" data-name="Path 158" d="M1410.438,785.677l3.647-3.639c.279-.278.764-.743,1.055-1.016l3.768-3.521c.322-.3.822-.8,1.119-1.115l.036-.038a20.606,20.606,0,0,0-2.823-3.689l-.838.821c-.3.291-.8.762-1.09,1.055l-3.683,3.6c-.314.3-.806.818-1.1,1.146l-3.446,3.844c-.251.279-.7.728-.973.99l-3.333,3.107,0,.164,2.219,1.212c.23.125.611.328.844.449l.782.4,2.742-2.7C1409.661,786.449,1410.143,785.97,1410.438,785.677Z" transform="translate(-1402.752 -766.365)" fill="#4bb131"/>
          <path id="Path_159" data-name="Path 159" d="M1405.506,768.6l.626-.586a20.547,20.547,0,0,0-3.316-.527l-.005,1.81c0,.26-.008.692-.018.955l-.037,1.055,1.694-1.692C1404.729,769.34,1405.214,768.876,1405.506,768.6Z" transform="translate(-1402.756 -767.491)" fill="#4bb131"/>
          <path id="Path_160" data-name="Path 160" d="M1414.579,789.961l3.646-3.639c.278-.279.765-.742,1.055-1.016l2.264-2.115a16.914,16.914,0,0,0-1.1-4.7c-.1.1-.2.2-.281.276l-3.685,3.6c-.314.306-.806.82-1.1,1.147l-3.447,3.844c-.251.28-.7.729-.974.991l-1.9,1.766,1.65.82c.232.117.61.323.833.457l.989.592.97-.957C1413.8,790.734,1414.282,790.256,1414.579,789.961Z" transform="translate(-1401.383 -765.094)" fill="#4bb131"/>
          <path id="Path_161" data-name="Path 161" d="M1404.217,780.96l3.648-3.639c.279-.278.764-.743,1.055-1.016l3.768-3.521c.32-.3.823-.8,1.121-1.117l.491-.523a30.15,30.15,0,0,0-4.186-2.124l-1.912,1.867c-.314.3-.806.821-1.1,1.147l-3.446,3.844c-.216.239-.565.594-.838.857l.009.179c.013.267.021.692.018.955l-.034,3.019c0,.263,0,.7,0,.96l0,.505.331-.328C1403.44,781.734,1403.922,781.255,1404.217,780.96Z" transform="translate(-1402.745 -767.158)" fill="#4bb131"/>
          <path id="Path_162" data-name="Path 162" d="M1416.146,791.18c-.251.279-.7.729-.973.991l-.187.173,1.386.709c.232.117.621.309.856.419l1.779.843c.1-.218.2-.436.292-.657a19.477,19.477,0,0,0,1.117-7.191c-.281.285-.606.628-.825.87Z" transform="translate(-1400.092 -763.358)" fill="#4bb131"/>
        </g>
      </g>
    </g>
  </g>
</svg>
