<svg id="Group_143" data-name="Group 143" xmlns="http://www.w3.org/2000/svg" width="55.3" height="55" viewBox="0 0 55.3 55">
  <path id="Path_167" data-name="Path 167" d="M824.895,133.893a26.556,26.556,0,0,1-.774,7.081c-.845,3.208-2.509,5.282-4.357,7.9-2.059,2.914-3.9,6.019-7.055,7.721a74.794,74.794,0,0,1-6.819,3.141c-7.047,2.907-14.993,1.849-21.631-1.618a29.582,29.582,0,0,1-8.924-6.811c-4.617-5.532-6.1-13.209-5.662-20.245.444-7.195,2.941-11.583,8-16.607,1.77-1.755,2.514-2.842,4.866-3.66,2.972-1.033,5.727-2.868,8.7-3.528a34.967,34.967,0,0,1,10.252-.743,26.2,26.2,0,0,1,10.556,3.789,25.891,25.891,0,0,1,10.808,12.6A32.226,32.226,0,0,1,824.895,133.893Z" transform="translate(-769.599 -106.42)" fill="#ebebec"/>
  <g id="Group_135" data-name="Group 135" transform="translate(10.572 4.689)">
    <path id="Path_146" data-name="Path 146" d="M1043.142,856.465q-.074-.1-.147-.211c-.86-1.317-.439-5.407-.421-6.942s-.481-5.395.806-6.5c1.9-1.628,7.131-.1,6.573,2.46-.6,2.774-1.943,4.6-3.164,7.069C1046.4,853.122,1045.086,859.064,1043.142,856.465Z" transform="translate(-1025.599 -842.138)" fill="#65bb24"/>
    <path id="Path_147" data-name="Path 147" d="M1047.077,857.7a24.936,24.936,0,0,1,2.985.917c1.88.538,8.935,1.418,9.016,4.2.024.764-2.12,4.957-3.149,4.363a35,35,0,0,1-5.529-3.4c-1.329-1.113-2.588-2.306-3.931-3.4C1045.031,859.209,1044.5,857.252,1047.077,857.7Z" transform="translate(-1025.049 -837.241)" fill="#65bb24"/>
    <path id="Path_148" data-name="Path 148" d="M1042.5,859.375c-1.662,1.536-4.9,3.016-5.813,3.775-1.547,1.3-2.7,2.667-4.623,3.569-.948-.727-3.852-3.789-3.7-5.086.128-1.123,1.262-1.122,2.177-1.417.9-.294,12.846-4.959,12.96-2.55A2.448,2.448,0,0,1,1042.5,859.375Z" transform="translate(-1028.36 -837.443)" fill="#65bb24"/>
    <path id="Path_149" data-name="Path 149" d="M1045.516,857.152a1.876,1.876,0,1,1-1.875-1.875A1.874,1.874,0,0,1,1045.516,857.152Z" transform="translate(-1025.735 -838.224)" fill="#65bb24"/>
    <path id="Path_150" data-name="Path 150" d="M1041.379,877.829c.067-1.664.317-3.428.326-4.55.033-3.9.271-7.794.274-11.7,0-2.712,3.235-3.05,3.235,0,0,6.547.988,13.214.719,19.719-.831-.663-3.088-.395-4.017.221A6.968,6.968,0,0,1,1041.379,877.829Z" transform="translate(-1025.813 -835.426)" fill="#65bb24"/>
  </g>
</svg>
