<svg xmlns="http://www.w3.org/2000/svg" width="55.299" height="55" viewBox="0 0 55.299 55">
  <g id="Group_142" data-name="Group 142" transform="translate(0)">
    <path id="Path_166" data-name="Path 166" d="M824.9,133.893a26.556,26.556,0,0,1-.774,7.081c-.845,3.208-2.509,5.282-4.357,7.9-2.059,2.914-3.9,6.019-7.055,7.721a74.768,74.768,0,0,1-6.819,3.141c-7.046,2.907-14.993,1.849-21.631-1.618a29.582,29.582,0,0,1-8.924-6.811c-4.617-5.532-6.1-13.209-5.662-20.245.444-7.195,2.941-11.583,8-16.607,1.77-1.755,2.514-2.842,4.866-3.66,2.972-1.033,5.727-2.868,8.7-3.528a34.965,34.965,0,0,1,10.252-.743,26.2,26.2,0,0,1,10.556,3.789,25.891,25.891,0,0,1,10.808,12.6A32.224,32.224,0,0,1,824.9,133.893Z" transform="translate(-769.599 -106.42)" fill="#ebebec"/>
    <g id="Group_134" data-name="Group 134" transform="translate(4.979 10.092)">
      <path id="Path_142" data-name="Path 142" d="M307.672,198.722a2.075,2.075,0,0,0,.281.127c1.773.65,1.251.3,3-.844,5.3-3.465,11.155-8.763,16.906-2.553,6.814,7.358,3.33,15.829-3.531,21.428a51.779,51.779,0,0,0-8.9,9.918,22.092,22.092,0,0,1-5.787,5.37c-1.948,1.186-10.167-9.657-11.575-11.207-3.665-4.031-7.339-7.457-10.065-12.3a12.76,12.76,0,0,1-1.374-8.4c1.7-7.666,11.618-8.755,17.141-5.08C304.963,195.974,306.409,198.048,307.672,198.722Z" transform="translate(-286.409 -192.584)" fill="#4bb131"/>
      <g id="Group_133" data-name="Group 133" transform="translate(2.386 8.893)">
        <path id="Path_143" data-name="Path 143" d="M288.311,213.323a10.7,10.7,0,0,1,.839-1.913c.862-2.039.437-3.542.362-5.682-.056-1.571.384-4,1.536-5.147,1.1-1.1,2.988-1.146,4.442-1.033.6.046,1.12.362,1.7.441.607.081,1.3-.058,1.932,0,1.469.143,2.9.529,4.359.764a23.222,23.222,0,0,0,5.944.1,57.384,57.384,0,0,1,5.775-.365,12.005,12.005,0,0,1,4.741.811c.91.451,1.173,1.448,1.593,2.291.349.7.788,1.468,1.235,2.275.937,1.3,1.619,2.772,2.6,4.052-.977-1.276,3.736-1.678,3.73-1.617-.116,1.5-1.61,1.874-2.753,2.415.527.613,1.4.609,1.881,1.3.586.843.186,1.394-.014,2.291-.219.978-.089,1.971-.233,2.948a13.288,13.288,0,0,0-.2,2.625,2.137,2.137,0,0,1-1.1.744c-.423-.254-.989-.285-1.392-.561a3.92,3.92,0,0,1-.969-1.132c-.481-.761-.913-1.665-1.361-2.219-.39-.48-.535-1.12-.967-1.57a3.782,3.782,0,0,0-1.183-.766c-1.468-.479-4.834-1.579-5.913-.008-.245.353-.072,1.06-.126,1.471-.115.872-.535,1.727-.565,2.613-.05,1.58.936,1.949,1.351,3.249a1.908,1.908,0,0,1-1.53.087c-.576-.211-.335-.071-.632-.629a17.758,17.758,0,0,1-.633-1.774c-.223.36-.191,2.42.441,2.393-.619.027-1.44-.146-1.961.179-.25-.465-.152-1.52-.8-1.513a15.364,15.364,0,0,0,.6-5.42,3.465,3.465,0,0,0-.094-1.173c-.238-.672-.059-.459-.829-.541-1.463-.157-2.891.233-4.348.091-1.36-.128-2.757-.325-4.084-.585a9.629,9.629,0,0,0-4.326-.166c-.411.116-1.145.57-1.218,1.041s.563.881.593,1.422a7.7,7.7,0,0,0,.839,3.972c.624.938,1.7,1.57,2.052,2.692-.915-.059-2.24.513-2.8-.257-.206-.285-.019-.736-.357-1.02-.414-.346-.895,0-1.165-.623a6.748,6.748,0,0,1-.017-1.247,3.381,3.381,0,0,0-.358-1.258,20.5,20.5,0,0,1-1.378-2.679,7.847,7.847,0,0,0-1.072,3.669c.071,1.251,1.344,2.288,1.265,3.5a11.168,11.168,0,0,1-2.068.089c.532-1.109-1.194-1.832-1.072-2.96.059-.558.428-.983.437-1.621a8.817,8.817,0,0,0-.3-2.532c-.237-.812-.488-.939.026-1.7,1.855-2.738.088-4.766-.388-7.676-.285.7.076,2.174.116,2.969a4.875,4.875,0,0,1-.436,2.55,4.608,4.608,0,0,0-.771,1.885c-.049,1.244.235,2.041-.684,3.126A8.807,8.807,0,0,1,288.311,213.323Z" transform="translate(-288.266 -199.507)" fill="#363e42"/>
        <path id="Path_144" data-name="Path 144" d="M292.075,203.068c.624-.437,1.345-.683,1.937-1.109.565-.406.56-1.213.916-1.747.567-.851.767-.477,1.7-.352.606.082,1.393-.06,2.025,0a19.576,19.576,0,0,1,3.387.712,8.094,8.094,0,0,0-2.148,5.831c.136,1.529,1.745,2.9,2.371,4.259a7.839,7.839,0,0,1,1.045,2.549,20.6,20.6,0,0,1-2.337-.34c-.527-.1-1.566-.448-2.048-.225-.135.063-.322.188-.454.267.008.4.649,1.793-.176,1.588-.555-.137-.261-1.778-1.184-1.249.247.9.243,2.282-.461.91-.213-.412-.329-1.372-.722-.567-.166.339.068,1.1.089,1.467a15.091,15.091,0,0,1,.171,1.688c-.519-.506-1.046-.585-1.362-1.331a8.921,8.921,0,0,1-.337-2.14c-.145-.961.1-.928,1.016-1.4a4.526,4.526,0,0,0,1.868-1.508c1.17-1.742-.234-1.5-.818-2.707-.241-.5.2-1.155-.429-1.688-.45-.384-1.109-.175-1.716-.118-.689.067-2.372.568-2.975.276a2.521,2.521,0,0,1-.746-1.686c.108-.488.7-.807,1.073-1.137A3.285,3.285,0,0,1,292.075,203.068Z" transform="translate(-287.58 -199.46)" fill="#fafafa"/>
        <path id="Path_145" data-name="Path 145" d="M302.612,200.6a24.924,24.924,0,0,1,2.7-.018c2.537-.175,2.405,4.211,4.768,4.132.853-.028.934-.373,1.305.451.343.757.54,1.682-.123,2.094-.7.435-1.749-.107-2.433.364-.47.321-.532,1.088-.645,1.671-.051.279-.355.313-.279.649.053.236.6.606.773.8a3.155,3.155,0,0,1,.967,1.441c.022.094-1.309.443-1.445.545-.477.36-.714,1.3-1.051,1.764-.275-1.805-.926-1.394-2.18-1.493a7.818,7.818,0,0,0,1.07-3.168,3.07,3.07,0,0,0-.88-2.6c-.218-.194-.587-.175-.874-.442-.43-.4-.263-.541-.51-1a3.75,3.75,0,0,1-.618-1.829c-.094-1.1.2-3.07-1.421-3.3C301.872,200.618,302.475,200.622,302.612,200.6Z" transform="translate(-284.354 -199.214)" fill="#fafafa"/>
      </g>
    </g>
  </g>
</svg>
