<svg id="Layer_1" data-name="Layer 1" xmlns="http://www.w3.org/2000/svg" viewBox="0 0 54.19 54.19"><defs><style>.cls-1{fill:#ebebec;}.cls-2{fill:#006c3a;}</style></defs><title>Tegnebræt 2</title><path class="cls-1" d="M51.94,27a24.33,24.33,0,0,1-.7,6.41c-.77,2.91-2.28,4.79-4,7.16-1.87,2.64-3.53,5.45-6.39,7-2,1.06-4.16,2-6.18,2.85C28.34,53.05,21.14,52.09,15.13,49A26.83,26.83,0,0,1,7,42.78c-4.18-5-5.52-12-5.13-18.34S4.58,14,9.16,9.4c1.61-1.59,2.28-2.57,4.41-3.32,2.69-.93,5.19-2.59,7.88-3.19a31.54,31.54,0,0,1,9.29-.67A23.63,23.63,0,0,1,40.3,5.65a23.41,23.41,0,0,1,9.79,11.41A29,29,0,0,1,51.94,27Z"/><path class="cls-2" d="M12.7,25.38c.52,3.17,2.57,5.81,3.86,8.69,1.07,2.42,1.81,6.06,3.5,8.09,1.25,1.51,4,1,5.6.7.09-2.92,3.25-6.56,4.36-9.43a67.51,67.51,0,0,1,6.51-12.54c2-3,3.59-6.22,5.35-9.4-1.6,1.37-3.16,1.67-4.6,3.22a83.14,83.14,0,0,0-10,13.13c-.81,1.34-4.14,7.07-3.85,8.52-.67-3.31-3-10.36-6.1-12.11-.62-.36-4.07-.71-4.59,0C12.59,24.37,12.6,24.77,12.7,25.38Z"/></svg>