<svg id="Group_144" data-name="Group 144" xmlns="http://www.w3.org/2000/svg" width="55.3" height="55" viewBox="0 0 55.3 55">
  <path id="Path_168" data-name="Path 168" d="M824.895,133.893a26.559,26.559,0,0,1-.774,7.081c-.845,3.208-2.509,5.282-4.358,7.9-2.059,2.914-3.9,6.019-7.055,7.721a74.8,74.8,0,0,1-6.819,3.141c-7.047,2.907-14.993,1.849-21.631-1.618a29.582,29.582,0,0,1-8.924-6.811c-4.617-5.532-6.1-13.209-5.662-20.245.444-7.194,2.941-11.583,8-16.607,1.77-1.755,2.514-2.842,4.866-3.66,2.972-1.033,5.727-2.868,8.7-3.528a34.966,34.966,0,0,1,10.252-.743,26.2,26.2,0,0,1,10.556,3.789,25.891,25.891,0,0,1,10.808,12.6A32.221,32.221,0,0,1,824.895,133.893Z" transform="translate(-769.599 -106.42)" fill="#ebebec"/>
  <g id="Group_137" data-name="Group 137" transform="translate(12.06 4.965)">
    <path id="Path_152" data-name="Path 152" d="M375.132,1522.236a27.964,27.964,0,0,1,1.8-6.464,56.029,56.029,0,0,1,4.2-4.824c.707-.758,7.473-4.563,8.556-4.563s7.873,3.771,8.642,4.563a40.488,40.488,0,0,1,4.064,4.694,31,31,0,0,1,1.562,6.628l1.142.012a44,44,0,0,0-2.207-7.9,40.4,40.4,0,0,0-4.065-4.7c-.767-.786-8.058-4.562-9.138-4.562s-8.346,3.806-9.053,4.562a56.494,56.494,0,0,0-4.2,4.826c-.442.834-2.3,6.52-2.3,7.773Z" transform="translate(-373.932 -1505.121)" fill="#d1d1ce"/>
    <g id="Group_136" data-name="Group 136" transform="translate(0 0.941)">
      <path id="Path_153" data-name="Path 153" d="M386.482,1542.264s10.916-.076,12.507-.06,6.081-.208,6.081-.208c.212,0,0-.756,0-2.015v-3.359s-.33-5.673,0-6.921,0-6.7,0-6.7a44.274,44.274,0,0,0-2.2-7.9,40.818,40.818,0,0,0-4.066-4.694c-.768-.791-8.058-4.561-9.14-4.561s-8.344,3.8-9.05,4.561a55.34,55.34,0,0,0-4.2,4.826c-.445.833-2.308,6.522-2.308,7.772v16.975c0,1.259-.278,2.3,0,2.3l4.554-.018h7.827Z" transform="translate(-373.977 -1505.848)" fill="#f8353c"/>
      <path id="Path_154" data-name="Path 154" d="M378.674,1528.7a18.091,18.091,0,0,0,.12,3.114,32.448,32.448,0,0,1,.169,4.3c0,.581-1.044,1.173.074,1.173l4.643.02s5.03-.153,6.135,0,7.567-.061,7.567-.061c.424,0,.387-.414.387-1,0,0,.634-4.746.353-5.535a62.272,62.272,0,0,1-.353-6.7c0-.581.191-1.05-.078-1.05H379.038c-1.118,0-.364.47-.364,1.05v4.681Z" transform="translate(-372.671 -1500.817)" fill="#da8f83"/>
      <path id="Path_155" data-name="Path 155" d="M388.161,1512.742s-1.374-.023-1.792.034-3.17.052-3.17.052.008.169.008.486v.839a11.139,11.139,0,0,1,0,1.729,10.411,10.411,0,0,0,0,1.672c0,.314-.03.54.093.56,0,0,3.246.186,3.7.108s4.385-.119,4.385-.119c.071-.074.076-.234.076-.548v-4.24c0-.317.034-.492-.052-.576l-1.162,0h-2.087Z" transform="translate(-371.277 -1503.824)" fill="#363e42"/>
    </g>
  </g>
</svg>
