<svg id="Group_141" data-name="Group 141" xmlns="http://www.w3.org/2000/svg" width="55.336" height="55" viewBox="0 0 55.336 55">
  <path id="Path_165" data-name="Path 165" d="M824.931,133.893a26.546,26.546,0,0,1-.774,7.081c-.845,3.208-2.511,5.282-4.36,7.9-2.06,2.914-3.9,6.019-7.06,7.721a74.84,74.84,0,0,1-6.824,3.141c-7.051,2.907-15,1.849-21.645-1.618a29.6,29.6,0,0,1-8.93-6.811c-4.62-5.532-6.1-13.209-5.666-20.245.444-7.194,2.943-11.583,8.007-16.607,1.771-1.755,2.515-2.842,4.87-3.66,2.974-1.033,5.731-2.868,8.711-3.528a35.009,35.009,0,0,1,10.259-.743,26.223,26.223,0,0,1,10.563,3.789,25.9,25.9,0,0,1,10.815,12.6A32.205,32.205,0,0,1,824.931,133.893Z" transform="translate(-769.599 -106.42)" fill="#ebebec"/>
  <g id="Group_132" data-name="Group 132" transform="translate(4.995 10.947)">
    <g id="Group_131" data-name="Group 131">
      <path id="Path_139" data-name="Path 139" d="M1122.749,777.685c1.965-.238,3.022-3.862,4.49-5.082,2.185-1.817,5.436-2.06,8.134-1.759,2.247.249,4.181.212,5.349,2.471.993,1.921,3.266,2.508,4.416,4.192,2.05-.873,4.714-1.785,6.97-1.473a8.231,8.231,0,0,1,5.632,3.873c-.5.512-.576,1.47-1.112,1.925a9.107,9.107,0,0,1-3.506,1.109c-2.52.463-4.756-1.937-7.026-1.4.1,3.045-1.124,5.862-2.225,8.631-.921,2.314-2.874,4.59-2.743,7.185.149,2.915,1.878,5.663-.221,8.349-1.349,1.72-4.562,1.878-6.591,1.919-2.575.051-7.607-.437-7.961-3.815-.385-3.657,1.9-7,0-10.67-.922-1.783-2.162-3.356-3.006-5.265a12.352,12.352,0,0,1-1.016-3.591c-.079-.872.445-1.854-.286-2.6-1.853,2.072-6.575,2.591-8.671.929-.677-.537-2.146-2.037-1.981-2.958.235-1.294,3.156-2.108,4.256-2.437a10.2,10.2,0,0,1,3.8-.523C1120.4,776.8,1121.818,777.8,1122.749,777.685Z" transform="translate(-1111.384 -770.735)" fill="#363e42"/>
      <path id="Path_140" data-name="Path 140" d="M1130,786.441c-1.078-4.341,7.141-6.859,4.6-10.835-1.779-2.778-6.458-2.947-8.826-1.074-2.905,2.3-1.154,3.61.286,6.5.856,1.716-.074,3.546,1.03,5.247a9.7,9.7,0,0,1,1.959,5.534c.246-1.022.986-1.7,1.28-2.617C1130.7,788.03,1130.294,787.622,1130,786.441Z" transform="translate(-1106.695 -769.799)" fill="#fafafa"/>
      <path id="Path_141" data-name="Path 141" d="M1129.856,799.616a2.909,2.909,0,0,0,2.345-1.867c.331-1.187-.646-1.479-1.276-2.2a4.723,4.723,0,0,1-1.294-2.888c-.019-.13-.419-2.918-.685-2.66-1.745,1.687-.926,4.587-2.335,6.437-.56.739-1.758,1.388-.947,2.279A4.679,4.679,0,0,0,1129.856,799.616Z" transform="translate(-1106.26 -763.689)" fill="#fafafa"/>
    </g>
  </g>
</svg>
